<svg xmlns="http://www.w3.org/2000/svg" version="1.1" width="115" height="34" viewBox="0 0 2000 239" preserveAspectRatio="xMidYMid meet">
  <path d="M0 0 C100.13548658 0 100.13548658 0 119.7734375 18.578125 C132.29541867 32.19852557 132.57603223 48.70968547 132.13623047 66.20068359 C131.56595471 77.91893066 126.71004384 89.95123932 118 98 C112.9077746 102.0704575 108.28653585 105.12683161 102 107 C108.11510578 115.70438481 114.25853363 124.38564332 120.5 133 C124.87578132 139.04716904 129.23864241 145.10306178 133.5625 151.1875 C134.29533203 152.21133789 134.29533203 152.21133789 135.04296875 153.25585938 C135.50445312 153.90748047 135.9659375 154.55910156 136.44140625 155.23046875 C136.84045166 155.79145264 137.23949707 156.35243652 137.65063477 156.93041992 C139.57251635 159.8780932 141.27211664 162.93465192 143 166 C136.91741926 166.34825396 130.84071823 166.60101676 124.75048828 166.76904297 C122.68370468 166.8391089 120.61760689 166.93440913 118.55322266 167.05615234 C101.87581016 168.0144392 101.87581016 168.0144392 97.10031128 164.66931152 C93.46468528 160.9471181 91.27555005 156.63480432 89 152 C87.79841252 150.14847379 86.57430256 148.31102626 85.3125 146.5 C84.68730469 145.55253906 84.06210937 144.60507813 83.41796875 143.62890625 C79.37835364 137.53427013 75.22644471 131.51444331 71.1027832 125.4765625 C70.47331787 124.55488281 69.84385254 123.63320312 69.1953125 122.68359375 C68.62828613 121.85400146 68.06125977 121.02440918 67.47705078 120.16967773 C66.30837861 118.45298524 65.15196525 116.72794787 64 115 C61.28995497 114.489395 61.28995497 114.489395 58.1171875 114.48828125 C56.54106689 114.43861206 56.54106689 114.43861206 54.93310547 114.38793945 C53.59393066 114.36304443 52.25475586 114.33814941 50.875 114.3125 C46.62625 114.209375 42.3775 114.10625 38 114 C38 131.16 38 148.32 38 166 C25.46 166 12.92 166 0 166 C0 111.22 0 56.44 0 0 Z M38 32 C38 49.16 38 66.32 38 84 C43.589375 84.061875 49.17875 84.12375 54.9375 84.1875 C56.68281006 84.21481201 58.42812012 84.24212402 60.22631836 84.27026367 C70.51110958 84.36528132 79.50703371 84.17907072 87.49609375 76.74609375 C92.56016652 70.86650796 94.318818 64.04266765 94.21875 56.4375 C93.63928408 49.98059401 91.16506529 43.95305061 87 39 C77.21377868 30.82589402 64.92468316 31.73135466 52.875 31.875 C47.96625 31.91625 43.0575 31.9575 38 32 Z " fill="#5670FF" transform="translate(363,16)"/>
  <path d="M0 0 C4.95504052 4.29493997 8.32547557 8.48821335 12 14 C12.33 7.4 12.66 0.8 13 -6 C22.9 -6 32.8 -6 43 -6 C43.06799216 9.36971403 43.12314083 24.73935238 43.15543652 40.10917664 C43.17083745 47.24731877 43.19179552 54.38536011 43.22631836 61.5234375 C43.25643019 67.75250225 43.27562407 73.98149393 43.28226548 80.21062946 C43.28614133 83.50212592 43.29673416 86.79336744 43.31719017 90.08480835 C43.58024189 134.19704126 43.58024189 134.19704126 27.203125 151.04296875 C11.02467575 165.4142508 -10.48803803 167.36061049 -31.22607422 167.26074219 C-33.86319114 167.25004789 -36.49962279 167.26067657 -39.13671875 167.2734375 C-40.85937646 167.27211511 -42.58203376 167.26955106 -44.3046875 167.265625 C-45.06973602 167.26967346 -45.83478455 167.27372192 -46.62301636 167.27789307 C-54.00495719 167.2167424 -60.47630695 166.07481329 -68 165 C-68 154.77 -68 144.54 -68 134 C-65.834375 134.165 -63.66875 134.33 -61.4375 134.5 C-53.37893544 135.00843727 -45.31083504 135.17205157 -37.23782349 135.23217773 C-35.23127266 135.24961951 -33.22486796 135.28187149 -31.21850586 135.31445312 C-19.2861048 135.3566837 -8.28573362 134.08312269 1 126 C7.64396617 117.99316897 7.2690809 109.94104453 7 100 C6.46632813 100.65226562 5.93265625 101.30453125 5.3828125 101.9765625 C-2.78388454 111.5561829 -11.90816009 117.85355809 -24.65844727 119.30200195 C-27.3841296 119.43615799 -30.08375584 119.46803577 -32.8125 119.4375 C-33.77518799 119.42920166 -34.73787598 119.42090332 -35.72973633 119.41235352 C-49.79739248 119.07991626 -61.37609664 114.36315045 -71.75 104.75 C-85.57094487 89.83792791 -89.5188922 70.65648606 -88.92578125 50.93554688 C-88.07758347 33.63523704 -83.07936438 18.13954954 -70.80859375 5.4765625 C-51.87143276 -11.22185206 -20.98902794 -15.72410343 0 0 Z M-41.91015625 28.6875 C-49.54385444 36.72638386 -52.11349544 46.06187743 -52 57 C-51.30773924 66.03647526 -48.56726128 75.01851474 -41.8125 81.375 C-33.92905022 87.35554811 -25.75148797 89.04385847 -16 88 C-8.38596432 86.74721138 -3.06718603 82.70693096 2 77 C6.69613342 69.72940226 7.23383128 63.26633042 7.3125 54.875 C7.34150391 53.86695313 7.37050781 52.85890625 7.40039062 51.8203125 C7.4714047 43.38602499 5.54128389 35.84587347 -0.26171875 29.4140625 C-12.47833163 19.47605382 -29.68349751 17.88603461 -41.91015625 28.6875 Z " fill="#5670FF" transform="translate(1935,64)"/>
  <path d="M0 0 C14.85954825 11.65148986 25.17551322 26.14469701 28.125 45.1875 C28.125 47.4975 28.125 49.8075 28.125 52.1875 C15.585 52.1875 3.045 52.1875 -9.875 52.1875 C-11.195 48.5575 -12.515 44.9275 -13.875 41.1875 C-19.13834161 31.41272273 -27.61203091 26.6132083 -37.875 23.1875 C-49.86839774 20.15535275 -62.52208299 21.88371045 -73.4375 27.5078125 C-83.86533983 33.95475401 -89.66759526 43.0582223 -92.84765625 54.76953125 C-96.70318317 72.18216678 -95.88954432 89.90560645 -86.49609375 105.47265625 C-79.73085656 115.03984454 -71.32231847 120.67801603 -59.875 123.1875 C-44.3721194 124.43968231 -30.30492056 123.38894875 -17.875 113.1875 C-11.39111726 107.5622136 -10.14095209 101.67897543 -6.875 93.1875 C5.665 93.1875 18.205 93.1875 31.125 93.1875 C29.0798614 111.59374737 22.24275425 126.02379915 9.125 139.1875 C8.52300781 139.81269531 7.92101562 140.43789062 7.30078125 141.08203125 C-8.57692451 156.3397832 -31.89744637 160.74699835 -53.125 160.37109375 C-76.26965846 159.23796985 -96.23274998 151.55994673 -112.4375 134.625 C-130.94117188 113.14635614 -135.58405788 86.84860176 -133.875 59.1875 C-131.36319218 36.86300293 -120.99766311 16.74945676 -103.875 2.1875 C-74.92588826 -19.64428868 -29.84248221 -20.76364255 0 0 Z " fill="#5670FF" transform="translate(842.875,26.8125)"/>
  <path d="M0 0 C12.21 0 24.42 0 37 0 C37.33 31.68 37.66 63.36 38 96 C40.97 92.04 43.94 88.08 47 84 C49.07884559 81.26716351 51.1602426 78.53692194 53.25 75.8125 C54.36333925 74.35941943 55.47661867 72.90629303 56.58984375 71.453125 C57.1504248 70.72158203 57.71100586 69.99003906 58.28857422 69.23632812 C60.00920844 66.98796729 61.72588384 64.73663801 63.44140625 62.484375 C64.00633789 61.74340576 64.57126953 61.00243652 65.15332031 60.23901367 C66.21475448 58.84662321 67.27537983 57.45361558 68.33496094 56.05981445 C69.34148007 54.74060469 70.36587494 53.43486241 71.40673828 52.14257812 C73.09306927 49.9780083 73.09306927 49.9780083 74.47998047 47.29492188 C76.69903479 43.66689322 78.64756767 40.60933577 82.96743774 39.49038696 C88.80351435 38.74725652 94.64199328 39.09016114 100.5 39.375 C102.29414691 39.42521538 104.08842874 39.47083323 105.8828125 39.51171875 C110.25856312 39.62138604 114.62778868 39.79358386 119 40 C117.75227816 43.43346846 116.36326092 46.11116456 114.09375 48.96875 C113.52003662 49.69779541 112.94632324 50.42684082 112.35522461 51.17797852 C111.74300049 51.94424561 111.13077637 52.7105127 110.5 53.5 C109.21977969 55.12348315 107.93983303 56.74718213 106.66015625 58.37109375 C105.71873779 59.56001221 105.71873779 59.56001221 104.75830078 60.77294922 C102.45978311 63.68423473 100.19567913 66.6197987 97.9375 69.5625 C97.16535156 70.56796875 96.39320313 71.5734375 95.59765625 72.609375 C90.39183694 79.40119661 85.19524519 86.20008847 80 93 C85.91500088 102.6952646 92.49384952 111.91404646 99.02929688 121.1953125 C105.05547133 129.77171143 111.02396535 138.38862947 117 147 C117.58604004 147.84336914 118.17208008 148.68673828 118.77587891 149.55566406 C120.3531701 151.82700003 121.92723343 154.10052955 123.5 156.375 C123.96301514 157.04112305 124.42603027 157.70724609 124.90307617 158.39355469 C128 162.88478807 128 162.88478807 128 164 C92.56070615 167.42027335 92.56070615 167.42027335 82.90917969 162.38867188 C78.02231905 157.80362786 75.53053232 151.80359134 72.83642578 145.76513672 C69.57153876 138.76660529 65.07698097 132.40938778 60.78598022 126.01190186 C59.27226456 123.721193 57.8219987 121.39895706 56.3762207 119.06494141 C55.44546144 117.62927472 54.51284338 116.19481093 53.578125 114.76171875 C53.17955795 114.09290176 52.78099091 113.42408478 52.37034607 112.73500061 C50.99879635 110.55061333 50.99879635 110.55061333 48 108 C44.37 107.67 40.74 107.34 37 107 C37 125.81 37 144.62 37 164 C24.79 164 12.58 164 0 164 C0 109.88 0 55.76 0 0 Z " fill="#5670FF" transform="translate(525,18)"/>
  <path d="M0 0 C12.81911953 10.58023157 21.41366032 24.39175265 23.52734375 41.0859375 C24.7957124 62.44157259 22.63411473 81.54504363 8.21484375 98.4609375 C-5.9896461 113.29032876 -24.50990149 118.85365388 -44.53515625 119.3359375 C-63.43260165 119.16551966 -81.71898052 113.50477872 -95.72265625 100.3359375 C-108.15253498 87.06723259 -112.64266764 71.27090972 -112.72265625 53.5234375 C-112.74328125 52.40646484 -112.76390625 51.28949219 -112.78515625 50.13867188 C-112.8354713 39.28948868 -110.79750247 29.54519035 -105.78515625 19.8984375 C-105.43412842 19.21773193 -105.08310059 18.53702637 -104.72143555 17.83569336 C-97.13950533 3.63249313 -83.78820445 -6.16866178 -68.47265625 -10.9140625 C-44.99454553 -16.96108372 -19.69111599 -15.19916844 0 0 Z M-66.47265625 26.0859375 C-74.33723564 34.16897742 -75.76259713 44.30908104 -75.79174805 55.08520508 C-75.68864526 61.70706495 -74.5739989 67.16984492 -71.47265625 73.0859375 C-71.13363281 73.74851563 -70.79460938 74.41109375 -70.4453125 75.09375 C-66.96157846 80.82145507 -60.89058385 84.53165593 -54.640625 86.73046875 C-45.40571577 88.24466107 -34.4732744 88.41968294 -26.47265625 83.0859375 C-18.37859707 76.0353633 -13.99350764 67.40347257 -13.234375 56.73828125 C-13.00114 45.06425554 -14.72079961 35.13889563 -22.4921875 25.9921875 C-34.77921261 14.16562289 -54.22246811 14.46015215 -66.47265625 26.0859375 Z " fill="#5670FF" transform="translate(1000.47265625,67.9140625)"/>
  <path d="M0 0 C11.23614392 9.5670066 15.63225625 22.58558874 17.1875 36.875 C17.5218942 43.31115791 17.42151153 49.76087524 17.3828125 56.203125 C17.37907461 58.04685308 17.37623131 59.89058317 17.37423706 61.73431396 C17.36666167 66.54780727 17.34706673 71.36117667 17.3248291 76.17462158 C17.30060726 81.97095683 17.29156063 87.76733389 17.27992249 93.56370544 C17.26063785 102.3342227 17.22227303 111.10446898 17.1875 119.875 C4.9775 119.875 -7.2325 119.875 -19.8125 119.875 C-19.84988281 114.32558594 -19.88726563 108.77617187 -19.92578125 103.05859375 C-19.95606947 99.53577667 -19.98722287 96.01300959 -20.02148438 92.49023438 C-20.07574267 86.90293947 -20.12685531 81.31574348 -20.15893555 75.72827148 C-20.18501026 71.22177993 -20.22544205 66.71562184 -20.27568626 62.20933723 C-20.29232683 60.49306459 -20.30385858 58.7767343 -20.31011391 57.06039238 C-20.31978577 54.64985353 -20.34788069 52.2401624 -20.38012695 49.82983398 C-20.37869186 49.12564331 -20.37725677 48.42145264 -20.3757782 47.69592285 C-20.50721803 40.71488396 -22.82731317 34.86018683 -27.8125 29.875 C-33.8209357 26.24490343 -39.91174024 26.050208 -46.8125 26.875 C-52.14798008 28.48342673 -55.86820718 31.07689319 -58.8125 35.875 C-61.25019246 41.14263062 -62.25712324 45.93899038 -62.24487305 51.75976562 C-62.2550647 52.5022052 -62.26525635 53.24464478 -62.27575684 54.00958252 C-62.3056543 56.43355075 -62.31511661 58.85712237 -62.32421875 61.28125 C-62.34108276 62.973768 -62.35923531 64.6662736 -62.37861633 66.35876465 C-62.42593565 70.79081346 -62.45586147 75.22281201 -62.48205566 79.6550293 C-62.51721897 84.98502032 -62.57417989 90.31481841 -62.62744904 95.64465332 C-62.70575093 103.7214104 -62.75651641 111.79791859 -62.8125 119.875 C-75.0225 119.875 -87.2325 119.875 -99.8125 119.875 C-99.8125 78.955 -99.8125 38.035 -99.8125 -4.125 C-89.9125 -4.125 -80.0125 -4.125 -69.8125 -4.125 C-69.4825 3.135 -69.1525 10.395 -68.8125 17.875 C-67.966875 16.204375 -67.12125 14.53375 -66.25 12.8125 C-60.79673856 2.94348858 -54.27509034 -1.87724534 -43.8125 -6.125 C-29.38990759 -9.51375308 -12.27444723 -8.6534853 0 0 Z " fill="#5670FF" transform="translate(1147.8125,62.125)"/>
  <path d="M0 0 C12.21 0 24.42 0 37 0 C37.02578125 5.6821875 37.0515625 11.364375 37.078125 17.21875 C37.10330487 20.82816952 37.12964648 24.4375062 37.16015625 28.046875 C37.2084249 33.77018501 37.25249448 39.49330314 37.27099609 45.21679688 C37.28619012 49.83358113 37.32068422 54.44986191 37.36830902 59.06642151 C37.38309456 60.82373162 37.39103939 62.58111361 37.39188385 64.33848572 C37.39426386 66.80887924 37.42142445 69.27789294 37.45410156 71.74804688 C37.4490712 72.46734375 37.44404083 73.18664062 37.43885803 73.92773438 C37.55988294 79.8788483 39.33248666 85.1766675 43.48248672 89.56908417 C48.74812808 94.12954395 53.2126679 94.35446657 59.921875 94.2734375 C65.17206546 93.80705002 68.99583677 92.20457956 72.5625 88.28125 C76.44640734 83.07328334 77.15511516 78.74719075 77.20532227 72.31567383 C77.21522186 71.5349501 77.22512146 70.75422638 77.23532104 69.94984436 C77.26691177 67.36893752 77.29168388 64.78801227 77.31640625 62.20703125 C77.33697787 60.41769431 77.3579744 58.6283622 77.37937927 56.83903503 C77.43457842 52.12907834 77.48399723 47.41907794 77.53222656 42.70904541 C77.59128854 37.05802885 77.65750467 31.40709218 77.72252655 25.75614166 C77.82050895 17.17080989 77.90938355 8.58542692 78 0 C90.21 0 102.42 0 115 0 C115 40.92 115 81.84 115 124 C105.43 124 95.86 124 86 124 C85.505 113.605 85.505 113.605 85 103 C84.29875 104.505625 83.5975 106.01125 82.875 107.5625 C78.49850105 116.24194329 72.97041488 122.3072315 63.76660156 125.86279297 C57.56938762 127.8304657 51.98347443 128.46119095 45.5 128.375 C44.62730469 128.38660156 43.75460937 128.39820313 42.85546875 128.41015625 C31.77612103 128.3609147 21.5548527 124.8520348 13.21484375 117.40625 C2.6782267 105.98035325 -0.18481326 90.38485906 -0.11352539 75.38085938 C-0.11367142 74.56039124 -0.11381744 73.7399231 -0.1139679 72.89459229 C-0.11327706 70.2109503 -0.10552389 67.5273797 -0.09765625 64.84375 C-0.09578912 62.97188352 -0.09436661 61.10001656 -0.09336853 59.22814941 C-0.08956659 54.32257721 -0.07975632 49.41703503 -0.06866455 44.51147461 C-0.05659284 38.61426412 -0.05203712 32.71704355 -0.04621124 26.81982422 C-0.03654317 17.87986199 -0.0173704 8.93996552 0 0 Z " fill="#5670FF" transform="translate(1317,58)"/>
  <path d="M0 0 C1.44463623 0.01135986 1.44463623 0.01135986 2.91845703 0.02294922 C15.04897369 0.30334078 24.02959971 3.57805126 32.76953125 12.02734375 C47.52577209 27.90431174 46.2923408 51.440641 46.22265625 71.67578125 C46.22078606 73.29387874 46.219365 74.91197681 46.21836853 76.53007507 C46.21459062 80.74345525 46.204802 84.95679973 46.19366455 89.17016602 C46.18152655 94.24985771 46.17702564 99.32956149 46.17121124 104.40926361 C46.16158666 112.08536706 46.14239737 119.76139255 46.125 127.4375 C33.915 127.4375 21.705 127.4375 9.125 127.4375 C9.06892578 119.47302734 9.06892578 119.47302734 9.01171875 111.34765625 C8.98141923 107.97067155 8.95025846 104.59373829 8.91601562 101.21679688 C8.861824 95.86452928 8.8107091 90.51236344 8.77856445 85.15991211 C8.75242905 80.84143703 8.71195537 76.52330639 8.66181374 72.2050457 C8.64521392 70.56299585 8.63365698 68.92088651 8.62738609 67.27876472 C8.75032068 52.89437371 8.75032068 52.89437371 2.8125 40.0625 C-1.99437995 35.36740795 -5.60336916 34.23792789 -12.25 34 C-17.89942965 34.16086075 -22.48140567 34.68788404 -26.875 38.4375 C-31.59145603 44.31238382 -33.02058101 49.47951295 -33.08032227 56.93823242 C-33.09022186 57.69944901 -33.10012146 58.46066559 -33.11032104 59.24494934 C-33.14190729 61.76092418 -33.16668209 64.27691789 -33.19140625 66.79296875 C-33.21197826 68.53746532 -33.2329748 70.28195693 -33.25437927 72.02644348 C-33.30957442 76.61803167 -33.35899499 81.20966465 -33.40722656 85.80133057 C-33.46629222 91.3105128 -33.53250614 96.81961317 -33.59752655 102.32872772 C-33.69550391 110.69826848 -33.78438194 119.06786174 -33.875 127.4375 C-46.085 127.4375 -58.295 127.4375 -70.875 127.4375 C-70.875 86.5175 -70.875 45.5975 -70.875 3.4375 C-61.305 3.4375 -51.735 3.4375 -41.875 3.4375 C-41.545 11.0275 -41.215 18.6175 -40.875 26.4375 C-39.225 23.1375 -37.575 19.8375 -35.875 16.4375 C-26.49645935 4.22770179 -15.26484261 -0.16880553 0 0 Z " fill="#5670FF" transform="translate(1778.875,54.5625)"/>
  <path d="M0 0 C8.76933969 6.96793467 13.489629 14.9305704 15 26 C15.01173136 27.66662538 15.01308094 29.33338467 15 31 C10.39210058 31.19830404 5.78669851 31.34315655 1.17553711 31.43945312 C-0.39130925 31.47959962 -1.95785742 31.53413434 -3.52368164 31.60351562 C-16.59818248 32.16818127 -16.59818248 32.16818127 -20.10058594 29.24951172 C-21.3663479 27.19508269 -22.18957493 25.26365079 -23 23 C-27.4868617 18.5131383 -33.36385064 17.87256965 -39.4375 17.6875 C-45.09943761 17.79653319 -50.1491014 18.70874662 -54.69140625 22.359375 C-56.56580772 24.70937087 -56.41176788 27.04716853 -56.49609375 29.96484375 C-55.77032689 32.94220229 -54.37111968 34.10631389 -52 36 C-45.34898873 38.54427574 -37.96327161 39.15883923 -30.93383789 40.02050781 C-14.61951529 42.03465597 -0.25189695 45.80442894 11.49609375 58.0703125 C18.45315466 66.99703481 19.00011729 78.14859112 18 89 C15.7681778 98.76900461 9.57079446 106.53365661 1.6171875 112.3984375 C-15.28916177 122.74411392 -38.96337765 123.87850965 -57.99145508 119.87084961 C-69.82000336 116.85695153 -80.48063288 111.87205254 -88 102 C-92.52296482 93.99532845 -94 88.23077246 -94 79 C-83.11 79 -72.22 79 -61 79 C-60.01 81.31 -59.02 83.62 -58 86 C-52.52919637 91.6271123 -46.43550961 93.12206715 -38.82177734 93.40625 C-30.33774874 93.52359987 -23.62912614 92.81222153 -16.875 87.25 C-15.48051199 83.6641737 -15.71298406 80.60810828 -17 77 C-23.75247158 70.05995977 -35.66109181 69.97606629 -44.8125 69.125 C-60.5595119 67.59155809 -74.77300974 63.07920999 -85.26953125 50.61328125 C-91.16864313 41.70469017 -92.4249401 31.03195291 -90.33984375 20.7421875 C-87.32605494 9.49592797 -82.0497239 2.45274966 -72.04296875 -3.49609375 C-50.02496829 -14.37790399 -20.69929753 -13.03475861 0 0 Z " fill="#5670FF" transform="translate(1279,65)"/>
  <path d="M0 0 C11.22 0 22.44 0 34 0 C34 10.89 34 21.78 34 33 C45.88 33 57.76 33 70 33 C70 42.24 70 51.48 70 61 C58.12 61 46.24 61 34 61 C34.09721912 67.95628371 34.20012949 74.912011 34.31738281 81.86791992 C34.35553336 84.23147544 34.39040987 86.59508626 34.421875 88.95874023 C34.46782887 92.36722505 34.52577269 95.77533367 34.5859375 99.18359375 C34.59748871 100.23083115 34.60903992 101.27806854 34.62094116 102.35704041 C34.7364647 113.30741798 34.7364647 113.30741798 39.25 122.9375 C45.38919803 127.54189852 51.99440604 127.39561344 59.375 127.625 C62.88125 127.74875 66.3875 127.8725 70 128 C70 138.23 70 148.46 70 159 C28.90393987 159.54794747 28.90393987 159.54794747 15 151 C14.0925 150.443125 13.185 149.88625 12.25 149.3125 C0.69984588 137.44150826 -0.16189457 122.02295108 -0.09765625 106.41015625 C-0.0962413 105.11049423 -0.09482635 103.81083221 -0.09336853 102.4717865 C-0.08957334 99.03756747 -0.07976908 95.60339158 -0.06866455 92.16918945 C-0.05838555 88.65641869 -0.05385708 85.14364088 -0.04882812 81.63085938 C-0.03814376 74.75388688 -0.02057167 67.87694996 0 61 C-6.27 61 -12.54 61 -19 61 C-19 51.76 -19 42.52 -19 33 C-12.73 33 -6.46 33 0 33 C0 22.11 0 11.22 0 0 Z " fill="#5771FF" transform="translate(1539,25)"/>
  <path d="M0 0 C17.16 0 34.32 0 52 0 C52 54.45 52 108.9 52 165 C39.79 165 27.58 165 15 165 C15 119.46 15 73.92 15 27 C10.05 27 5.1 27 0 27 C0 18.09 0 9.18 0 0 Z " fill="#5670FF" transform="translate(1451,18)"/>
  <path d="M0 0 C17.49 0 34.98 0 53 0 C53 40.92 53 81.84 53 124 C41.12 124 29.24 124 17 124 C17 92.32 17 60.64 17 28 C11.39 28 5.78 28 0 28 C0 18.76 0 9.52 0 0 Z " fill="#5771FF" transform="translate(1622,58)"/>
  <path d="M0 0 C1.83498047 -0.01063477 1.83498047 -0.01063477 3.70703125 -0.02148438 C11.17129824 0.03096723 17.91265905 0.14064875 23.8984375 5.12109375 C24.34445313 5.69988281 24.79046875 6.27867188 25.25 6.875 C25.94222656 7.73931641 25.94222656 7.73931641 26.6484375 8.62109375 C29.1527706 12.32973991 30.1248477 14.96765576 30.10205078 19.48144531 C30.10180908 20.49609863 30.10156738 21.51075195 30.10131836 22.55615234 C30.09108643 23.61527832 30.08085449 24.6744043 30.0703125 25.765625 C30.06829834 26.74450684 30.06628418 27.72338867 30.06420898 28.73193359 C30.0537556 32.38383682 30.02583301 36.03567318 30 39.6875 C29.95875 47.855 29.9175 56.0225 29.875 64.4375 C9.415 64.4375 -11.045 64.4375 -32.125 64.4375 C-32.455 56.5175 -32.785 48.5975 -33.125 40.4375 C-34.445 41.4275 -35.765 42.4175 -37.125 43.4375 C-41.76824073 44.07112165 -46.44323614 43.90085311 -51.125 43.875 C-52.40890625 43.89498047 -53.6928125 43.91496094 -55.015625 43.93554688 C-56.24796875 43.93490234 -57.4803125 43.93425781 -58.75 43.93359375 C-59.87664062 43.93544678 -61.00328125 43.9372998 -62.1640625 43.93920898 C-65.125 43.4375 -65.125 43.4375 -67.5234375 41.84399414 C-69.125 39.4375 -69.125 39.4375 -69.03100586 36.06103516 C-69.13725737 31.96497034 -70.06001912 30.74868352 -72.96229553 27.96102905 C-73.51227707 27.46599884 -74.06225861 26.97096863 -74.62890625 26.4609375 C-75.18617905 25.92779938 -75.74345184 25.39466125 -76.31761169 24.84536743 C-78.0916805 23.14993387 -79.88656928 21.47934191 -81.6875 19.8125 C-83.49096851 18.13762747 -85.28820774 16.45813346 -87.06809998 14.75820923 C-88.17357463 13.70259455 -89.29283029 12.66118625 -90.426651 11.63607788 C-91.94360352 10.18896484 -91.94360352 10.18896484 -94.125 7.4375 C-93.96069336 4.58056641 -93.96069336 4.58056641 -93.125 2.4375 C-90.96923828 2.08203125 -90.96923828 2.08203125 -88.125 2.4375 C-86.07170207 4.28482566 -84.38900842 6.0362061 -82.6171875 8.125 C-81.54994524 9.31668116 -80.47909274 10.50513693 -79.4050293 11.69067383 C-78.84939301 12.30697662 -78.29375671 12.92327942 -77.72128296 13.55825806 C-67.67928284 25.13445295 -67.67928284 25.13445295 -54.16918945 31.23168945 C-48.80334014 31.27337998 -45.08635354 30.33256525 -41.16015625 26.5390625 C-37.91455231 22.63893968 -35.3420023 18.51218923 -32.88671875 14.08203125 C-29.09918369 7.37651439 -24.169118 3.83796083 -17.02441406 1.18310547 C-11.40265795 -0.26257011 -5.76903167 -0.09482502 0 0 Z " fill="#5670FF" transform="translate(208.125,66.5625)"/>
  <path d="M0 0 C1.56331055 -0.0309375 1.56331055 -0.0309375 3.15820312 -0.0625 C10.98656079 -0.10181379 18.17227578 0.69472993 24.5625 5.5625 C29.08766454 10.19540655 30.53003272 14.27757793 30.52697754 20.60180664 C30.51162964 21.37000732 30.49628174 22.13820801 30.48046875 22.9296875 C30.47744751 23.65099854 30.47442627 24.37230957 30.47131348 25.11547852 C30.45572989 27.78546655 30.41384649 30.45524909 30.375 33.125 C30.313125 39.10625 30.25125 45.0875 30.1875 51.25 C9.7275 51.25 -10.7325 51.25 -31.8125 51.25 C-31.874375 46.155625 -31.93625 41.06125 -32 35.8125 C-32.02731201 34.22381104 -32.05462402 32.63512207 -32.08276367 30.99829102 C-32.13390333 22.28310278 -31.80798387 15.06417051 -27.0625 7.4375 C-19.23590439 -0.17169018 -10.40687345 0.05092048 0 0 Z " fill="#5671FF" transform="translate(207.8125,183.75)"/>
  <path d="M0 0 C1.03833984 -0.020625 2.07667969 -0.04125 3.14648438 -0.0625 C11.09347762 -0.10235953 18.30248857 0.80912348 25.1875 5 C30.59120879 10.72157401 31.90757355 15.40358616 31.703125 23.02734375 C31.69909668 23.74764771 31.69506836 24.46795166 31.69091797 25.21008301 C31.67018189 27.86948568 31.61433775 30.52852174 31.5625 33.1875 C31.48 39.148125 31.3975 45.10875 31.3125 51.25 C10.8525 51.25 -9.6075 51.25 -30.6875 51.25 C-30.749375 46.155625 -30.81125 41.06125 -30.875 35.8125 C-30.90231201 34.22381104 -30.92962402 32.63512207 -30.95776367 30.99829102 C-31.00942252 22.19462302 -30.86899872 14.16557801 -25.375 6.875 C-18.04690619 -0.28267303 -9.62910087 0.0469426 0 0 Z " fill="#5670FF" transform="translate(48.6875,183.75)"/>
  <path d="M0 0 C34.32 0 68.64 0 104 0 C104 23.76 104 47.52 104 72 C97 66 97 66 96.15821838 63.03860474 C96.17376266 62.00379974 96.18930695 60.96899475 96.20532227 59.90283203 C96.20616821 58.7056958 96.20701416 57.50855957 96.20788574 56.27514648 C96.24369751 55.03192627 96.27950928 53.78870605 96.31640625 52.5078125 C96.32345581 51.354021 96.33050537 50.20022949 96.33776855 49.01147461 C96.37429956 44.71548525 96.47203036 40.42019201 96.5625 36.125 C96.706875 26.51375 96.85125 16.9025 97 7 C67.3 7 37.6 7 7 7 C7 44.62 7 82.24 7 121 C36.7 121 66.4 121 97 121 C97 109.12 97 97.24 97 85 C101 87 101 87 104 90 C104 102.54 104 115.08 104 128 C69.68 128 35.36 128 0 128 C0 85.76 0 43.52 0 0 Z " fill="#5670FF" transform="translate(25,2)"/>
  <path d="M0 0 C8.04610496 6.3379737 10.60926617 16.42173273 13.875 25.6875 C14.45937065 27.29549216 15.04529678 28.90291992 15.6328125 30.50976562 C19.80503742 42.02518709 19.80503742 42.02518709 21 48 C-3.75 48 -28.5 48 -54 48 C-53.20024041 43.20144245 -52.10920811 39.11725126 -50.41796875 34.625 C-50.16251785 33.93744629 -49.90706696 33.24989258 -49.64387512 32.54150391 C-49.10446116 31.09499401 -48.56223109 29.64953146 -48.01733398 28.20507812 C-47.19126625 26.01000789 -46.37935484 23.81005139 -45.56835938 21.609375 C-45.03991432 20.19759753 -44.51064439 18.78612848 -43.98046875 17.375 C-43.74176559 16.7248291 -43.50306244 16.0746582 -43.25712585 15.40478516 C-40.59600366 8.4254458 -37.12968944 3.3268396 -31 -1 C-21.46920619 -4.29956312 -9.06957412 -5.05366104 0 0 Z " fill="#5670FF" transform="translate(145,187)"/>
  <path d="M0 0 C4.48021006 2.69580091 6.74215561 6.47646682 8.375 11.375 C9.03691176 18.69943336 9.08691552 25.39504605 4.375 31.375 C-2.82171647 37.10299883 -9.71818612 37.05634164 -18.625 36.375 C-23.42526859 35.20837125 -26.61240018 32.88884077 -29.625 29 C-32.82014476 23.1965738 -32.53531946 16.77708276 -31.625 10.375 C-30.04086772 5.65166982 -27.40378645 2.50451198 -23.1875 -0.125 C-16.19224445 -3.09831545 -6.94452779 -3.09512662 0 0 Z " fill="#5670FF" transform="translate(1664.625,10.625)"/>
  <path d="M0 0 C4.50764269 2.55570934 7.21605977 4.98791479 8.75390625 10.08203125 C9.39961881 15.09243378 9.34107233 18.86253247 7.12890625 23.45703125 C3.77952383 27.15898024 1.23995049 29.71894282 -3.8671875 30.46484375 C-9.84979763 30.70836926 -13.58960303 30.15646063 -18.24609375 26.08203125 C-18.84421875 25.56640625 -19.44234375 25.05078125 -20.05859375 24.51953125 C-23.04583033 20.90340276 -22.57807238 16.24601112 -22.51953125 11.80859375 C-22.12682409 7.89274232 -20.94555069 5.91992188 -18.24609375 3.08203125 C-12.52607255 -1.17994533 -6.84296892 -2.79669164 0 0 Z " fill="#5670FF" transform="translate(135.24609375,148.91796875)"/>
  <path d="M0 0 C4.30329987 2.07298746 6.42490662 4.95324114 8.28125 9.30078125 C9.82361209 14.1469012 9.33754146 17.97539331 7.37890625 22.5625 C5.0672775 26.71054463 2.50658469 28.98898757 -2.05859375 30.375 C-7.07802893 31.13865416 -10.83082906 30.96614596 -15.43359375 28.75 C-19.13554274 25.40061758 -21.69550532 22.86104424 -22.44140625 17.75390625 C-22.62659767 13.20437048 -22.39672798 10.09028396 -20.43359375 5.9375 C-14.46552108 -0.5017363 -8.52904373 -2.58946299 0 0 Z " fill="#5670FF" transform="translate(214.05859375,147.625)"/>
  <path d="M0 0 C4.14804463 2.31162875 6.42648757 4.87232156 7.8125 9.4375 C8.57615416 14.45693518 8.40364596 18.20973531 6.1875 22.8125 C2.85284506 26.49817125 -0.26834512 28.79778171 -5 30.375 C-10.0738023 30.47448632 -14.92780832 29.39803628 -18.83984375 26.00390625 C-22.76238107 21.44466722 -23.54410174 17.52083432 -23.46875 11.71875 C-22.88233612 6.96228189 -20.04766535 4.21374678 -16.625 1.125 C-11.33746477 -2.53560131 -5.80091639 -2.53248962 0 0 Z " fill="#5670FF" transform="translate(57.1875,149.5625)"/>
  <path d="M0 0 C4.52276619 2.9871293 6.5320869 7.30949849 7.6015625 12.515625 C7.96723709 17.4041169 6.45392152 20.83419398 3.6640625 24.80078125 C0.89241361 27.9903772 -1.81789689 29.2488809 -5.984375 29.7734375 C-10.98951051 29.99178234 -14.56698048 29.36325735 -18.8125 26.5 C-23.08744507 21.87843776 -24.23664255 18.07804775 -24.15625 11.91796875 C-23.55655291 7.69964487 -21.60930216 4.65195164 -18.8125 1.5 C-13.23255359 -2.55814285 -6.21663847 -3.00159583 0 0 Z " fill="#5670FF" transform="translate(215.8125,33.5)"/>
</svg>